<svg width="896" height="130" viewBox="0 0 896 130" fill="none" xmlns="http://www.w3.org/2000/svg">
<g clip-path="url(#clip0_2433_23000)">
<path d="M45.8109 129.37C35.4242 129.37 26.8344 127.574 20.0431 124.078C13.2518 120.683 8.26058 116.087 4.9648 110.395C1.66902 104.702 -0.0288086 98.4108 -0.0288086 91.7194C-0.0288086 79.8346 4.56375 70.346 13.8519 63.4548C23.14 56.4638 36.3223 53.0677 53.5003 53.0677H85.6583V50.7718C85.6583 41.1841 83.0648 34.0932 77.8714 29.2993C72.6781 24.5055 65.9835 22.1074 57.6941 22.1074C50.4035 22.1074 44.1115 23.806 38.7184 27.4014C33.4252 30.9968 30.1326 36.1894 28.9341 43.0805H2.66696C3.56581 34.1919 6.55963 26.6032 11.753 20.2114C16.9463 13.8196 23.5387 9.02414 31.5284 5.62849C39.6181 2.23284 48.4092 0.5354 57.897 0.5354C75.075 0.5354 88.4579 5.02964 97.8458 14.0181C107.234 23.0066 111.925 35.2917 111.925 50.7718V126.374H89.1539L86.9575 105.302C83.4619 112.093 78.4691 117.785 71.7777 122.379C65.1861 126.973 56.4972 129.37 45.8109 129.37ZM51.0035 107.997C58.0944 107.997 64.0867 106.3 68.9805 102.904C73.8742 99.6085 77.6717 95.0144 80.3682 89.4216C83.0648 83.8287 84.7603 77.6371 85.4594 70.8457H56.1961C45.8094 70.8457 38.4196 72.6434 34.0252 76.3387C29.6309 79.9341 27.436 84.5278 27.436 89.9209C27.436 95.5138 29.5318 100.009 33.8263 103.205C38.0209 106.401 43.7128 107.997 51.0035 107.997Z" fill="#06046A"/>
<path d="M188.524 129.37C176.439 129.37 165.655 126.575 156.167 121.182C146.679 115.689 139.188 108.197 133.894 98.5095C128.501 88.8219 125.807 77.6367 125.807 64.9529C125.807 52.1693 128.501 40.984 133.894 31.3963C139.188 21.7087 146.679 14.1192 156.167 8.72608C165.655 3.23312 176.439 0.5354 188.524 0.5354C203.704 0.5354 216.389 4.53067 226.775 12.4206C237.062 20.3105 243.756 31.0959 246.652 44.5786H219.188C217.59 37.8872 213.892 32.5951 208.299 28.8C202.706 25.0048 196.114 23.1061 188.524 23.1061C182.032 23.1061 176.141 24.7048 170.648 27.9007C165.155 31.0967 160.859 35.7903 157.563 41.9823C154.168 48.1744 152.57 55.8645 152.57 64.9529C152.57 74.0413 154.168 81.6319 157.563 87.824C160.859 94.0161 165.155 98.8107 170.648 102.106C176.141 105.402 182.032 106.999 188.524 106.999C196.114 106.999 202.706 105.102 208.299 101.307C213.892 97.5116 217.59 92.2188 219.188 85.2277H246.652C243.856 98.4108 237.264 109.097 226.877 117.187C216.49 125.276 203.704 129.37 188.524 129.37Z" fill="#06046A"/>
<path d="M320.957 129.37C308.973 129.37 298.186 126.575 288.698 121.182C279.21 115.689 271.719 108.197 266.426 98.5095C261.033 88.8219 258.338 77.6367 258.338 64.9529C258.338 52.1693 261.033 40.984 266.426 31.3963C271.719 21.7087 279.21 14.1192 288.698 8.72608C298.186 3.23312 308.973 0.5354 320.957 0.5354C336.238 0.5354 348.92 4.53067 359.307 12.4206C369.594 20.3105 376.287 31.0959 379.184 44.5786H351.719C350.021 37.8872 346.423 32.5951 340.83 28.8C335.238 25.0048 328.648 23.1061 320.957 23.1061C314.566 23.1061 308.572 24.7048 303.179 27.9007C297.686 31.0967 293.393 35.7903 289.997 41.9823C286.701 48.1744 285.105 55.8645 285.105 64.9529C285.105 74.0413 286.701 81.6319 289.997 87.824C293.393 94.0161 297.686 98.8107 303.179 102.106C308.572 105.402 314.566 106.999 320.957 106.999C328.648 106.999 335.238 105.102 340.83 101.307C346.423 97.5116 350.021 92.2188 351.719 85.2277H379.184C376.387 98.4108 369.795 109.097 359.408 117.187C349.021 125.276 336.238 129.37 320.957 129.37Z" fill="#06046A"/>
<path d="M452.786 129.37C440.702 129.37 430.014 126.674 420.726 121.281C411.338 115.888 404.047 108.397 398.754 98.9094C393.461 89.3217 390.866 78.136 390.866 65.4523C390.866 52.5688 393.463 41.1833 398.657 31.4958C403.85 21.7083 411.141 14.1192 420.429 8.72608C429.817 3.23312 440.601 0.5354 452.985 0.5354C465.07 0.5354 475.556 3.23195 484.445 8.52517C493.434 13.9183 500.327 21.1091 505.321 29.9977C510.214 38.8863 512.71 48.7736 512.71 59.4599C512.71 61.1578 512.708 62.8564 512.608 64.7539C512.508 66.6515 512.41 68.8491 512.21 71.1461H416.634C417.432 83.0309 421.328 92.019 428.419 98.2111C435.41 104.403 443.498 107.498 452.786 107.498C460.177 107.498 466.468 105.801 471.462 102.405C476.555 99.1092 480.251 94.5158 482.748 88.7232H509.015C505.719 100.308 499.129 109.896 489.341 117.686C479.454 125.476 467.268 129.37 452.786 129.37ZM452.786 22.1074C443.998 22.1074 436.307 24.7048 429.515 29.8982C422.724 35.0915 418.631 42.882 417.133 53.2687H486.443C485.943 43.6809 482.55 36.0899 476.358 30.497C470.066 24.9042 462.174 22.1074 452.786 22.1074Z" fill="#06046A"/>
<path fill-rule="evenodd" clip-rule="evenodd" d="M547.668 88.7232C549.066 93.9166 552.161 98.4108 556.855 102.206C561.749 106.301 568.342 108.298 576.431 108.298C584.321 108.298 590.115 106.6 593.71 103.304C597.405 100.008 599.203 96.2129 599.203 91.9184C599.203 85.6264 596.705 81.433 591.611 79.1359C586.618 76.9387 579.628 74.9413 570.74 73.1436C563.748 71.6455 556.857 69.6481 549.965 67.1513C543.174 64.6545 537.48 61.1589 532.886 56.6647C528.391 52.0706 526.094 45.9784 526.094 38.1884C526.094 27.4022 530.191 18.5132 538.48 11.3224C546.769 4.13158 558.354 0.5354 573.135 0.5354C586.917 0.5354 598.001 3.83157 606.491 10.4231C614.98 17.0147 619.973 26.4027 621.471 38.3873H596.207C595.408 33.0941 592.91 28.9989 588.915 26.0028C584.821 23.1065 579.427 21.608 572.636 21.608C566.044 21.608 560.95 22.9079 557.354 25.7043C553.659 28.4009 551.861 31.8964 551.861 36.1909C551.861 40.4854 554.36 43.8803 559.453 46.3771C564.447 48.8739 571.137 51.0703 579.326 53.0677C587.616 54.8654 595.206 56.9635 602.297 59.3605C609.288 61.7574 614.981 65.2529 619.275 69.847C623.57 74.541 625.669 81.2328 625.669 90.2213C625.869 101.407 621.475 110.795 612.686 118.186C603.797 125.576 591.811 129.37 576.63 129.37C561.15 129.37 548.268 125.575 538.281 117.885C528.394 110.495 522.7 100.808 521.002 88.7232H547.668Z" fill="#1ED746"/>
<path d="M699.474 129.37C687.489 129.37 676.702 126.674 667.413 121.281C658.125 115.888 650.736 108.397 645.543 98.9094C640.25 89.3217 637.553 78.136 637.553 65.4523C637.553 52.5688 640.151 41.1833 645.344 31.4958C650.537 21.7083 657.826 14.1192 667.214 8.72608C676.503 3.23312 687.39 0.5354 699.774 0.5354C711.759 0.5354 722.246 3.23195 731.234 8.52517C740.123 13.9183 747.015 21.1091 752.008 29.9977C757.002 38.8863 759.397 48.7736 759.397 59.4599C759.397 61.1578 759.396 62.8564 759.296 64.7539C759.196 66.6515 759.098 68.8491 758.898 71.1461H663.321C664.12 83.0309 668.116 92.019 675.107 98.2111C682.098 104.403 690.286 107.498 699.474 107.498C706.964 107.498 713.156 105.801 718.149 102.405C723.243 99.1092 727.039 94.5158 729.436 88.7232H755.703C752.407 100.308 745.816 109.896 736.029 117.686C726.241 125.476 714.055 129.37 699.474 129.37ZM699.474 22.1074C690.785 22.1074 682.994 24.7048 676.203 29.8982C669.412 35.0915 665.318 42.882 663.82 53.2687H733.231C732.732 43.6809 729.337 36.0899 723.045 30.497C716.753 24.9042 708.862 22.1074 699.474 22.1074Z" fill="#1ED746"/>
<path d="M832.802 129.37C821.017 129.37 810.531 126.674 801.143 121.281C791.855 115.888 784.466 108.398 778.973 98.7105C773.579 89.1227 770.881 77.8364 770.881 64.9529C770.881 52.0694 773.579 40.7835 779.172 31.0959C784.664 21.4083 792.153 13.9183 801.541 8.52517C810.929 3.23195 821.416 0.5354 833.001 0.5354C844.786 0.5354 855.274 3.23195 864.562 8.52517C873.95 13.9183 881.339 21.4083 886.932 31.0959C892.425 40.7835 895.222 52.0694 895.222 64.9529C895.222 77.8364 892.425 89.1227 886.932 98.7105C881.339 108.398 873.849 115.888 864.461 121.281C855.073 126.674 844.487 129.37 832.802 129.37ZM832.802 106.8C838.994 106.8 844.887 105.203 850.28 102.106C855.573 98.9106 859.967 94.3165 863.263 88.1244C866.559 81.9323 868.155 74.1411 868.155 64.9529C868.155 55.6648 866.56 47.9754 863.364 41.7834C860.169 35.5913 855.872 30.8973 850.479 27.8013C845.086 24.6054 839.293 23.1061 833.001 23.1061C826.709 23.1061 820.916 24.6054 815.523 27.8013C810.23 30.8973 805.836 35.5913 802.54 41.7834C799.244 47.9754 797.546 55.6648 797.546 64.9529C797.546 74.1411 799.244 81.9323 802.54 88.1244C805.836 94.3165 810.133 98.9106 815.426 102.106C820.719 105.203 826.51 106.8 832.802 106.8Z" fill="#1ED746"/>
</g>
<defs>
<clipPath id="clip0_2433_23000">
<rect width="896" height="129" fill="white" transform="translate(0 0.5)"/>
</clipPath>
</defs>
</svg>
